<svg width="1195" height="449" xmlns="http://www.w3.org/2000/svg" xmlns:xlink="http://www.w3.org/1999/xlink" overflow="hidden"><defs><clipPath id="clip0"><rect x="44" y="1882" width="1195" height="449"/></clipPath><clipPath id="clip1"><rect x="45" y="1883" width="1193" height="447"/></clipPath><clipPath id="clip2"><rect x="45" y="1883" width="1193" height="447"/></clipPath><clipPath id="clip3"><rect x="45" y="1883" width="1193" height="447"/></clipPath></defs><g clip-path="url(#clip0)" transform="translate(-44 -1882)"><g clip-path="url(#clip1)"><g clip-path="url(#clip2)"><g clip-path="url(#clip3)"><path d="M569.148 13.9395C622.786 13.3995 676.424 12.9319 730.061 12.2996 786.314 11.6364 842.579 11.3341 898.814 9.91327 952.276 8.5625 1005.71 9.38606 1059.16 9.74125 1075.79 9.85174 1092.44 9.72921 1109.05 10.4098 1128.28 11.198 1147.45 12.9834 1166.16 18.0167 1179.34 21.5653 1180.72 22.3775 1181.88 36.0298 1183.12 50.5264 1183.82 65.1631 1183.35 79.6942 1181.52 137.071 1181.69 194.44 1182.27 251.833 1182.69 294.444 1181.96 337.071 1181.27 379.684 1181.09 390.843 1179.89 402.106 1177.86 413.083 1175.41 426.364 1173.28 430.844 1156.28 434.042 1148.44 435.517 1140.3 435.982 1132.3 435.922 1088.01 435.591 1043.71 435.148 999.43 434.368 961.495 433.7 923.574 432.278 885.64 431.643 843.033 430.929 800.419 430.614 757.806 430.328 712.576 430.025 667.344 429.729 622.114 429.861 581.371 429.979 540.63 430.828 499.887 431.073 471.48 431.245 443.064 430.548 414.662 430.952 379.719 431.449 344.788 432.774 309.847 433.569 290.228 434.016 270.599 434.006 250.978 434.393 203.329 435.332 155.685 436.493 108.034 437.346 81.4086 437.823 55.0553 434.948 28.9452 429.782 27.8473 429.565 26.7684 429.252 25.673 429.02 17.7972 427.352 13.1902 422.323 11.9106 414.605 10.7521 407.618 9.84319 400.528 9.62348 393.459 8.96735 372.349 8.45356 351.228 8.33252 330.109 7.93725 261.133 7.61211 192.156 7.53488 123.179 7.50599 97.3872 8.1906 71.5941 8.65525 45.8037 8.73926 41.141 9.15871 36.4657 9.73395 31.8348 10.8316 22.9987 14.1624 19.6752 23.164 19.2417 35.8506 18.6307 48.5586 18.4384 61.2592 18.1447 106.286 17.103 151.313 16.093 196.339 15.0738 219.135 14.5577 241.929 13.8809 264.727 13.5669 327.892 12.6967 391.058 11.6649 454.226 11.3353 485.053 11.1745 515.886 12.463 546.718 13.0311 554.19 13.1688 561.668 13.0515 569.143 13.0515 569.144 13.3475 569.146 13.6435 569.148 13.9395ZM27.2372 48.0854C27.2498 56.0187 33.2322 62.6131 40.4447 62.644 46.8348 62.6713 53.2362 55.6407 53.0895 48.7562 52.9407 41.773 46.2977 35.035 39.4824 34.9545 32.7015 34.8744 27.2255 40.7466 27.2372 48.0854ZM110.938 32.4267C103.433 32.3873 97.4387 38.6678 97.4273 46.5829 97.4139 55.7608 102.209 61.0344 110.679 61.1564 118.474 61.2686 124.74 54.9734 124.837 46.9335 124.933 38.9763 118.696 32.4674 110.938 32.4267ZM76.107 60.8819C83.0401 60.9611 89.0939 54.7101 89.0337 47.5343 88.9691 39.8545 83.2089 33.244 76.3498 32.9782 69.5037 32.7128 62.9555 39.4403 63.2055 46.8543 63.4381 53.7523 67.5786 60.7786 76.107 60.8819ZM118.008 46.9979C118.048 43.1847 114.611 39.7052 110.885 39.7873 107.457 39.8628 104.413 43.5407 104.393 47.6309 104.372 51.855 106.764 54.2371 111.009 54.2197 114.927 54.2037 117.966 51.0688 118.008 46.9979ZM76.1422 54.2548C79.3388 54.3217 82.3013 51.1066 82.2491 47.6273 82.192 43.8289 79.2044 40.193 76.1252 40.1745 73.1259 40.1565 70.1337 43.5016 70.0422 46.9749 69.939 50.8981 72.6912 54.1827 76.1422 54.2548ZM571.765 5.02041C624.28 4.43015 676.794 3.82881 729.309 3.253 773.789 2.76525 818.292 3.03292 862.744 1.65756 922.36-0.186908 981.963-0.258286 1041.58 0.321531 1063.07 0.530479 1084.57 0.51124 1106.05 1.18612 1126.43 1.8265 1146.69 3.93372 1166.52 9.05514 1169.76 9.89376 1172.95 10.987 1176.11 12.1366 1183.04 14.6632 1187.29 19.5564 1188.15 26.9428 1189.32 36.9542 1190.97 46.9866 1191.09 57.0256 1191.27 72.3317 1190.24 87.6496 1189.86 102.966 1189.43 119.782 1188.87 136.602 1188.86 153.421 1188.83 213.796 1189.19 274.171 1189.03 334.545 1188.98 354.534 1188.16 374.54 1186.98 394.496 1186.47 403.188 1184.52 411.855 1182.58 420.386 1180.46 429.703 1174.24 435.376 1165.15 438.426 1154.49 442 1143.48 442.57 1132.49 442.741 1085.95 443.463 1039.42 442.834 992.896 441.346 969.548 440.599 946.188 440.19 922.837 439.508 832.774 436.879 742.681 437.275 652.598 436.945 615.225 436.809 577.849 438.208 540.471 438.472 499.73 438.759 458.98 438.162 418.242 438.658 383.674 439.078 349.122 440.624 314.558 441.452 280.927 442.258 247.287 442.715 213.655 443.457 179.649 444.207 145.649 445.199 111.643 445.933 83.3348 446.544 55.2747 444.033 27.4828 438.596 25.6511 438.238 23.8316 437.795 22.0318 437.3 14.0306 435.097 8.33259 430.099 6.15829 422.15 4.39826 415.715 3.19341 408.99 2.8407 402.336 2.00012 386.477 1.55765 370.587 1.40062 354.704 0.798126 293.77 0.0226786 232.834 0.000147423 171.899-0.0151846 130.407 1.04341 88.9136 1.81294 47.4243 1.92314 41.483 2.71431 35.4777 3.94326 29.6611 4.7321 25.9275 6.72241 22.3936 8.50319 18.94 10.1183 15.8076 12.8738 13.7644 16.4236 13.2712 21.9632 12.5015 27.5231 11.5134 33.0922 11.3833 56.818 10.8289 80.5554 10.7504 104.279 10.1314 134.543 9.34176 164.796 8.13111 195.057 7.22987 217.287 6.56781 239.521 5.96878 261.758 5.59015 326.598 4.48607 391.437 3.13221 456.283 2.63392 489.536 2.37843 522.801 3.75205 556.061 4.35619 561.292 4.45125 566.527 4.36951 571.759 4.36951 571.761 4.58651 571.763 4.80345 571.765 5.02041ZM569.148 13.9395C569.146 13.6434 569.144 13.3475 569.143 13.0515 561.668 13.0515 554.19 13.1688 546.718 13.0311 515.886 12.463 485.053 11.1744 454.226 11.3353 391.058 11.6649 327.892 12.6967 264.727 13.5668 241.929 13.8809 219.135 14.5577 196.339 15.0737 151.313 16.093 106.286 17.103 61.2592 18.1447 48.5586 18.4385 35.8506 18.6307 23.164 19.2417 14.1625 19.6752 10.8316 22.9987 9.73395 31.8348 9.15871 36.4657 8.73926 41.141 8.65525 45.8037 8.1906 71.5941 7.50599 97.3872 7.53488 123.179 7.61211 192.156 7.93725 261.133 8.33252 330.109 8.45356 351.228 8.96735 372.349 9.62348 393.459 9.84319 400.529 10.7521 407.618 11.9106 414.605 13.1902 422.323 17.7972 427.352 25.673 429.02 26.7684 429.252 27.8473 429.565 28.9452 429.782 55.0553 434.948 81.4086 437.823 108.034 437.346 155.685 436.493 203.329 435.332 250.978 434.393 270.599 434.006 290.228 434.016 309.847 433.569 344.788 432.774 379.719 431.449 414.662 430.952 443.064 430.548 471.48 431.245 499.887 431.074 540.63 430.828 581.371 429.979 622.114 429.861 667.344 429.729 712.576 430.025 757.806 430.328 800.419 430.614 843.033 430.929 885.64 431.643 923.574 432.278 961.495 433.7 999.43 434.368 1043.71 435.148 1088.01 435.591 1132.3 435.922 1140.3 435.982 1148.44 435.517 1156.28 434.042 1173.28 430.844 1175.41 426.364 1177.86 413.083 1179.89 402.106 1181.09 390.843 1181.27 379.684 1181.96 337.071 1182.69 294.444 1182.27 251.833 1181.69 194.44 1181.52 137.071 1183.35 79.6942 1183.82 65.1632 1183.12 50.5265 1181.88 36.0298 1180.72 22.3775 1179.34 21.5653 1166.16 18.0167 1147.45 12.9835 1128.28 11.198 1109.05 10.4098 1092.44 9.72923 1075.79 9.85179 1059.16 9.74127 1005.71 9.38606 952.276 8.56252 898.814 9.91329 842.579 11.3341 786.314 11.6365 730.061 12.2996 676.424 12.9319 622.786 13.3995 569.148 13.9395ZM40.4447 62.644C46.8348 62.6713 53.2362 55.6407 53.0895 48.7562 52.9407 41.773 46.2977 35.035 39.4824 34.9545 32.7015 34.8744 27.2255 40.7466 27.2372 48.0854 27.2498 56.0187 33.2322 62.6131 40.4447 62.644ZM110.938 32.4267C118.696 32.4674 124.933 38.9763 124.837 46.9335 124.74 54.9734 118.474 61.2686 110.679 61.1564 102.209 61.0345 97.4139 55.7608 97.4273 46.5829 97.4387 38.6678 103.433 32.3873 110.938 32.4267ZM111.009 54.2197C114.927 54.2037 117.966 51.0688 118.008 46.9979 118.048 43.1847 114.611 39.7052 110.885 39.7873 107.457 39.8628 104.413 43.5407 104.393 47.631 104.372 51.8551 106.764 54.2371 111.009 54.2197ZM76.107 60.8819C67.5786 60.7786 63.4381 53.7523 63.2055 46.8543 62.9555 39.4403 69.5037 32.7128 76.3498 32.9782 83.2089 33.244 88.9691 39.8545 89.0337 47.5343 89.0939 54.7101 83.0401 60.9611 76.107 60.8819ZM70.0422 46.9749C69.939 50.8981 72.6912 54.1827 76.1422 54.2548 79.3388 54.3217 82.3013 51.1066 82.2491 47.6273 82.192 43.8289 79.2044 40.193 76.1252 40.1745 73.1259 40.1565 70.1337 43.5016 70.0422 46.9749Z" fill="#343231" transform="matrix(1.00153 0 0 1 45 1883.4)"/><path d="M569.148 13.9395C622.786 13.3995 676.424 12.9319 730.061 12.2996 786.314 11.6364 842.579 11.3341 898.814 9.91327 952.276 8.5625 1005.71 9.38606 1059.16 9.74125 1075.79 9.85174 1092.44 9.72921 1109.05 10.4098 1128.28 11.198 1147.45 12.9834 1166.16 18.0167 1179.34 21.5653 1180.72 22.3775 1181.88 36.0298 1183.12 50.5264 1183.82 65.1631 1183.35 79.6942 1181.52 137.071 1181.69 194.44 1182.27 251.833 1182.69 294.444 1181.96 337.071 1181.27 379.684 1181.09 390.843 1179.89 402.106 1177.86 413.083 1175.41 426.364 1173.28 430.844 1156.28 434.042 1148.44 435.517 1140.3 435.982 1132.3 435.922 1088.01 435.591 1043.71 435.148 999.43 434.368 961.495 433.7 923.574 432.278 885.64 431.643 843.033 430.929 800.419 430.614 757.806 430.328 712.576 430.025 667.344 429.729 622.114 429.861 581.371 429.979 540.63 430.828 499.887 431.073 471.48 431.245 443.064 430.548 414.662 430.952 379.719 431.449 344.788 432.774 309.847 433.569 290.228 434.016 270.599 434.006 250.978 434.393 203.329 435.332 155.685 436.493 108.034 437.346 81.4086 437.823 55.0553 434.948 28.9452 429.782 27.8473 429.565 26.7684 429.252 25.673 429.02 17.7972 427.352 13.1902 422.323 11.9106 414.605 10.7521 407.618 9.84319 400.528 9.62348 393.459 8.96735 372.349 8.45356 351.228 8.33252 330.109 7.93725 261.133 7.61211 192.156 7.53488 123.179 7.50599 97.3872 8.1906 71.5941 8.65525 45.8037 8.73926 41.141 9.15871 36.4657 9.73395 31.8348 10.8316 22.9987 14.1624 19.6752 23.164 19.2417 35.8506 18.6307 48.5586 18.4384 61.2592 18.1447 106.286 17.103 151.313 16.093 196.339 15.0738 219.135 14.5577 241.929 13.8809 264.727 13.5669 327.892 12.6967 391.058 11.6649 454.226 11.3353 485.053 11.1745 515.886 12.463 546.718 13.0311 554.19 13.1688 561.668 13.0515 569.143 13.0515 569.144 13.3475 569.146 13.6435 569.148 13.9395ZM27.2372 48.0854C27.2498 56.0187 33.2322 62.6131 40.4447 62.644 46.8348 62.6713 53.2362 55.6407 53.0895 48.7562 52.9407 41.773 46.2977 35.035 39.4824 34.9545 32.7015 34.8744 27.2255 40.7466 27.2372 48.0854ZM110.938 32.4267C103.433 32.3873 97.4387 38.6678 97.4273 46.5829 97.4139 55.7608 102.209 61.0344 110.679 61.1564 118.474 61.2686 124.74 54.9734 124.837 46.9335 124.933 38.9763 118.696 32.4674 110.938 32.4267ZM76.107 60.8819C83.0401 60.9611 89.0939 54.7101 89.0337 47.5343 88.9691 39.8545 83.2089 33.244 76.3498 32.9782 69.5037 32.7128 62.9555 39.4403 63.2055 46.8543 63.4381 53.7523 67.5786 60.7786 76.107 60.8819ZM118.008 46.9979C118.048 43.1847 114.611 39.7052 110.885 39.7873 107.457 39.8628 104.413 43.5407 104.393 47.6309 104.372 51.855 106.764 54.2371 111.009 54.2197 114.927 54.2037 117.966 51.0688 118.008 46.9979ZM76.1422 54.2548C79.3388 54.3217 82.3013 51.1066 82.2491 47.6273 82.192 43.8289 79.2044 40.193 76.1252 40.1745 73.1259 40.1565 70.1337 43.5016 70.0422 46.9749 69.939 50.8981 72.6912 54.1827 76.1422 54.2548Z" fill="#F7E3AC" transform="matrix(1.00153 0 0 1 45 1883.4)"/><path d="M571.765 5.02041C624.28 4.43015 676.794 3.82881 729.309 3.253 773.789 2.76525 818.292 3.03292 862.744 1.65756 922.36-0.186908 981.963-0.258286 1041.58 0.321531 1063.07 0.530479 1084.57 0.51124 1106.05 1.18612 1126.43 1.8265 1146.69 3.93372 1166.52 9.05514 1169.76 9.89376 1172.95 10.987 1176.11 12.1366 1183.04 14.6632 1187.29 19.5564 1188.15 26.9428 1189.32 36.9542 1190.97 46.9866 1191.09 57.0256 1191.27 72.3317 1190.24 87.6496 1189.86 102.966 1189.43 119.782 1188.87 136.602 1188.86 153.421 1188.83 213.796 1189.19 274.171 1189.03 334.545 1188.98 354.534 1188.16 374.54 1186.98 394.496 1186.47 403.188 1184.52 411.855 1182.58 420.386 1180.46 429.703 1174.24 435.376 1165.15 438.426 1154.49 442 1143.48 442.57 1132.49 442.741 1085.95 443.463 1039.42 442.834 992.896 441.346 969.548 440.599 946.188 440.19 922.837 439.508 832.774 436.879 742.681 437.275 652.598 436.945 615.225 436.809 577.849 438.208 540.471 438.472 499.73 438.759 458.98 438.162 418.242 438.658 383.674 439.078 349.122 440.624 314.558 441.452 280.927 442.258 247.287 442.715 213.655 443.457 179.649 444.207 145.649 445.199 111.643 445.933 83.3348 446.544 55.2747 444.033 27.4828 438.596 25.6511 438.238 23.8316 437.795 22.0318 437.3 14.0306 435.097 8.33259 430.099 6.15829 422.15 4.39826 415.715 3.19341 408.99 2.8407 402.336 2.00012 386.477 1.55765 370.587 1.40062 354.704 0.798126 293.77 0.0226786 232.834 0.000147423 171.899-0.0151846 130.407 1.04341 88.9136 1.81294 47.4243 1.92314 41.483 2.71431 35.4777 3.94326 29.6611 4.7321 25.9275 6.72241 22.3936 8.50319 18.94 10.1183 15.8076 12.8738 13.7644 16.4236 13.2712 21.9632 12.5015 27.5231 11.5134 33.0922 11.3833 56.818 10.8289 80.5554 10.7504 104.279 10.1314 134.543 9.34176 164.796 8.13111 195.057 7.22987 217.287 6.56781 239.521 5.96878 261.758 5.59015 326.598 4.48607 391.437 3.13221 456.283 2.63392 489.536 2.37843 522.801 3.75205 556.061 4.35619 561.292 4.45125 566.527 4.36951 571.759 4.36951 571.761 4.58651 571.763 4.80345 571.765 5.02041ZM569.148 13.9395C569.146 13.6434 569.144 13.3475 569.143 13.0515 561.668 13.0515 554.19 13.1688 546.718 13.0311 515.886 12.463 485.053 11.1744 454.226 11.3353 391.058 11.6649 327.892 12.6967 264.727 13.5668 241.929 13.8809 219.135 14.5577 196.339 15.0737 151.313 16.093 106.286 17.103 61.2592 18.1447 48.5586 18.4385 35.8506 18.6307 23.164 19.2417 14.1625 19.6752 10.8316 22.9987 9.73395 31.8348 9.15871 36.4657 8.73926 41.141 8.65525 45.8037 8.1906 71.5941 7.50599 97.3872 7.53488 123.179 7.61211 192.156 7.93725 261.133 8.33252 330.109 8.45356 351.228 8.96735 372.349 9.62348 393.459 9.84319 400.529 10.7521 407.618 11.9106 414.605 13.1902 422.323 17.7972 427.352 25.673 429.02 26.7684 429.252 27.8473 429.565 28.9452 429.782 55.0553 434.948 81.4086 437.823 108.034 437.346 155.685 436.493 203.329 435.332 250.978 434.393 270.599 434.006 290.228 434.016 309.847 433.569 344.788 432.774 379.719 431.449 414.662 430.952 443.064 430.548 471.48 431.245 499.887 431.074 540.63 430.828 581.371 429.979 622.114 429.861 667.344 429.729 712.576 430.025 757.806 430.328 800.419 430.614 843.033 430.929 885.64 431.643 923.574 432.278 961.495 433.7 999.43 434.368 1043.71 435.148 1088.01 435.591 1132.3 435.922 1140.3 435.982 1148.44 435.517 1156.28 434.042 1173.28 430.844 1175.41 426.364 1177.86 413.083 1179.89 402.106 1181.09 390.843 1181.27 379.684 1181.96 337.071 1182.69 294.444 1182.27 251.833 1181.69 194.44 1181.52 137.071 1183.35 79.6942 1183.82 65.1632 1183.12 50.5265 1181.88 36.0298 1180.72 22.3775 1179.34 21.5653 1166.16 18.0167 1147.45 12.9835 1128.28 11.198 1109.05 10.4098 1092.44 9.72923 1075.79 9.85179 1059.16 9.74127 1005.71 9.38606 952.276 8.56252 898.814 9.91329 842.579 11.3341 786.314 11.6365 730.061 12.2996 676.424 12.9319 622.786 13.3995 569.148 13.9395ZM40.4447 62.644C46.8348 62.6713 53.2362 55.6407 53.0895 48.7562 52.9407 41.773 46.2977 35.035 39.4824 34.9545 32.7015 34.8744 27.2255 40.7466 27.2372 48.0854 27.2498 56.0187 33.2322 62.6131 40.4447 62.644ZM110.938 32.4267C118.696 32.4674 124.933 38.9763 124.837 46.9335 124.74 54.9734 118.474 61.2686 110.679 61.1564 102.209 61.0345 97.4139 55.7608 97.4273 46.5829 97.4387 38.6678 103.433 32.3873 110.938 32.4267ZM111.009 54.2197C114.927 54.2037 117.966 51.0688 118.008 46.9979 118.048 43.1847 114.611 39.7052 110.885 39.7873 107.457 39.8628 104.413 43.5407 104.393 47.631 104.372 51.8551 106.764 54.2371 111.009 54.2197ZM76.107 60.8819C67.5786 60.7786 63.4381 53.7523 63.2055 46.8543 62.9555 39.4403 69.5037 32.7128 76.3498 32.9782 83.2089 33.244 88.9691 39.8545 89.0337 47.5343 89.0939 54.7101 83.0401 60.9611 76.107 60.8819ZM70.0422 46.9749C69.939 50.8981 72.6912 54.1827 76.1422 54.2548 79.3388 54.3217 82.3013 51.1066 82.2491 47.6273 82.192 43.8289 79.2044 40.193 76.1252 40.1745 73.1259 40.1565 70.1337 43.5016 70.0422 46.9749Z" fill="#343231" transform="matrix(1.00153 0 0 1 45 1883.4)"/></g></g></g></g></svg>